<mxfile host="app.diagrams.net" modified="2021-09-20T04:20:05.572Z" agent="5.0 (X11)" etag="fJf17xEZ_wevBrtTwTYi" version="15.2.9" type="github">
  <diagram id="5SxLLDEm8KFe4SDrQWpy" name="Page-1">
    <mxGraphModel dx="795" dy="376" grid="1" gridSize="10" guides="1" tooltips="1" connect="1" arrows="1" fold="1" page="1" pageScale="1" pageWidth="850" pageHeight="1100" math="0" shadow="0">
      <root>
        <mxCell id="0" />
        <mxCell id="1" parent="0" />
        <mxCell id="a_8NAu3Ajttd44A2zRf8-1" value="&lt;div&gt;user_id (auto increment)&lt;/div&gt;&lt;div&gt;user_name (varchar)&lt;/div&gt;&lt;div&gt;password(varchar)&lt;/div&gt;&lt;div&gt;emailId(varchar)&lt;/div&gt;&lt;div&gt;userType(varchar : 1)&lt;/div&gt;&lt;div&gt;Admin : A&lt;/div&gt;&lt;div&gt;User : U&lt;/div&gt;&lt;div&gt;Hr : H&lt;br&gt;&lt;/div&gt;&lt;div&gt;Manager : M&lt;br&gt;&lt;/div&gt;" style="rounded=1;whiteSpace=wrap;html=1;" vertex="1" parent="1">
          <mxGeometry x="110" y="70" width="210" height="250" as="geometry" />
        </mxCell>
        <mxCell id="a_8NAu3Ajttd44A2zRf8-2" value="User" style="text;html=1;strokeColor=none;fillColor=none;align=center;verticalAlign=middle;whiteSpace=wrap;rounded=0;" vertex="1" parent="1">
          <mxGeometry x="190" y="40" width="40" height="20" as="geometry" />
        </mxCell>
      </root>
    </mxGraphModel>
  </diagram>
</mxfile>
